<svg xmlns="http://www.w3.org/2000/svg" xmlns:xlink="http://www.w3.org/1999/xlink" xmlns:inkscape="http://www.inkscape.org/namespaces/inkscape" version="1.1" width="726.7803" height="49.536" viewBox="0 0 726.7803 49.536">
<g inkscape:groupmode="layer" inkscape:label="Layer 1">
<path transform="matrix(1,0,0,-1,0,49.536)" d="M550.5534 14.378818 546.27487 3.6H478.3402C477.10304 .779284 477.01475 .577933 477.01475 .577933L476.7853 0H551.3149L552.7443 3.601282H548.5959L553.5018 14.378818H550.5534Z" fill-rule="evenodd"/>
<path transform="matrix(1,0,0,-1,0,49.536)" d="M474.28874 3.6H471.74534L471.97474 4.177933C471.97474 4.177933 488.8158 42.57522 490.27876 45.910734H486.86958L467.61003 3.6H454.56358L452.92488 0H472.65003L474.28874 3.6Z" fill-rule="evenodd"/>
<path transform="matrix(1,0,0,-1,0,49.536)" d="M451.50065 11.543386 457.8466 25.484604 435.20545 4.92091 420.50196 4.924706 421.25273 1.325813 440.24546 1.32091 451.50065 11.543386Z" fill-rule="evenodd"/>
<path transform="matrix(1,0,0,-1,0,49.536)" d="M427.73164 45.91209 431.81843 22.078873 435.6284 25.65206 432.15403 45.913743 427.73164 45.91209Z" fill-rule="evenodd"/>
<path transform="matrix(1,0,0,-1,0,49.536)" d="M413.37867 18.511399 411.27983 28.572716 399.9124 3.6H386.86598L385.22727 0H404.95243L413.37867 18.511399Z" fill-rule="evenodd"/>
<path transform="matrix(1,0,0,-1,0,49.536)" d="M384.29414 30.302468 380.0156 19.52365H329.32048L329.5678 17.978819H383.01774L382.20198 15.92365H385.0556L390.76313 30.302468H384.29414Z" fill-rule="evenodd"/>
<path transform="matrix(1,0,0,-1,0,49.536)" d="M553.2588 30.302468 548.9802 19.52365H498.28514L498.5325 17.978819H551.9824L551.1666 15.92365H554.02029L559.7278 30.302468H553.2588Z" fill-rule="evenodd"/>
<path transform="matrix(1,0,0,-1,0,49.536)" d="M584.8766 25.278035 580.14559 29.556786 568.3308 3.601282H555.2746L553.6359 .001282H573.3708L584.8766 25.278035Z" fill-rule="evenodd"/>
<path transform="matrix(1,0,0,-1,0,49.536)" d="M645.02236 34.53645H642.8408L647.36526 45.93472H643.53207L624.26217 3.601282H609.9042L613.8847 .001282H629.3022L645.02236 34.53645Z" fill-rule="evenodd"/>
<path transform="matrix(1,0,0,-1,0,49.536)" d="M589.3156 45.93472 613.8083 23.990523 614.1043 24.640877 590.3375 45.93472H589.3156Z" fill-rule="evenodd"/>
<path transform="matrix(1,0,0,-1,0,49.536)" d="M720.3113 45.936 715.7863 34.53645H688.9915L688.70217 34.54019 674.6184 3.6H661.9215L660.2828 0H679.6584L693.7421 30.940192 694.0315 30.93645H720.82638L726.7803 45.936H720.3113Z" fill-rule="evenodd"/>
<path transform="matrix(1,0,0,-1,0,49.536)" d="M667.68618 30.93645 669.32656 34.54019 669.141 34.53645H649.3098L647.8808 30.93645H667.68618Z" fill-rule="evenodd"/>
<path transform="matrix(1,0,0,-1,0,49.536)" d="M383.77919 3.6H380.18727L385.0937 14.378818H381.58876L377.3102 3.6H309.37556C308.13838 .779284 308.05009 .577933 308.05009 .577933L307.82066 0H382.3502L383.77919 3.6Z" fill-rule="evenodd"/>
<path transform="matrix(1,0,0,-1,0,49.536)" d="M318.2987 45.936 313.77378 34.53645H286.9789L286.68955 34.54019 272.6058 3.6H259.9089L258.2702 0H277.6458L291.72956 30.940192 292.01893 30.93645H314.74638C318.795 40.1673 321.58668 46.53217 321.32518 45.936H318.2987Z" fill-rule="evenodd"/>
<path transform="matrix(1,0,0,-1,0,49.536)" d="M265.67356 30.93645 267.31398 34.54019 267.1284 34.53645H247.29721L245.86823 30.93645H265.67356Z" fill-rule="evenodd"/>
<path transform="matrix(1,0,0,-1,0,49.536)" d="M207.69269 11.988296 209.29907 15.588296H175.7457L170.3963 3.6H157.04811L155.44173 0H175.43631L180.7857 11.988296H207.69269Z" fill-rule="evenodd"/>
<path transform="matrix(1,0,0,-1,0,49.536)" d="M166.02364 45.936 161.49869 34.53645H134.70383L134.41446 34.54019 120.33072 3.6H107.63383L105.99514 0H125.37072L139.45447 30.940192 139.74384 30.93645H162.59975L169.01938 45.323198C169.1288 45.4748 169.31743 45.686899 169.5624 45.936H166.02364Z" fill-rule="evenodd"/>
<path transform="matrix(1,0,0,-1,0,49.536)" d="M113.39848 30.93645 115.03888 34.54019 114.85332 34.53645H95.022129L93.59314 30.93645H113.39848Z" fill-rule="evenodd"/>
<path transform="matrix(1,0,0,-1,0,49.536)" d="M240.45679 45.91868C241.30155 44.74844 241.81804 43.619756 241.5718 43.104276L223.94426 3.6H210.59607L208.98969 0H228.98426L244.39505 34.53645H240.82822L244.43367 43.619539C243.18343 44.981264 241.68878 46.088895 240.72788 45.91868H240.45679Z" fill-rule="evenodd"/>
<path transform="matrix(1,0,0,-1,0,49.536)" d="M217.0628 31.305594 218.18857 34.905595H183.95037L182.2915 29.600844H188.45728L188.99036 31.305594H217.0628Z" fill-rule="evenodd"/>
<path transform="matrix(1,0,0,-1,0,49.536)" d="M81.0524 29.799199C81.755939 28.36917 81.53852 27.18133 81.403499 27.067759 81.403499 27.067759 78.90755 20.37344 78.81899 20.135922L78.25765 18.205636 72.81201 3.6H6.382243L5.04 0H77.85201L83.29765 14.605635 83.858989 16.535922C83.94755 16.77344 86.44349 23.467759 86.44349 23.467759 86.691127 23.67604 87.21586 27.497416 81.82917 29.799498L81.0524 29.799199Z" fill-rule="evenodd"/>
<path transform="matrix(1,0,0,-1,0,49.536)" d="M14.505393 18.884835H57.650686L57.12756 19.890124 14.021083 19.90461C14.151468 19.527455 14.316352 19.188788 14.505393 18.884835Z" fill-rule="evenodd"/>
<path transform="matrix(1,0,0,-1,0,49.536)" d="M564.11978 45.936 559.84127 35.15718H504.68269L504.91148 33.90247H554.6878L553.75686 31.557183H561.3212L567.86636 45.936H564.11978Z" fill-rule="evenodd"/>
<path transform="matrix(1,0,0,-1,0,49.536)" d="M392.91319 31.557183 399.4583 45.936H395.15513L390.87657 35.15718H335.71803L335.9468 33.90247H385.7231L384.79219 31.557183H392.91319Z" fill-rule="evenodd"/>
<path transform="matrix(1,0,0,-1,0,49.536)" d="M90.4817 34.53645H88.55315L93.07809 45.936H88.34972L83.99309 34.251165H32.147054L31.003344 34.254468 31.425129 33.38201 76.78917 33.399499C78.66983 32.59577 79.82993 31.606854 80.5328 30.651165H89.03309L90.4817 34.53645Z" fill-rule="evenodd"/>
<path transform="matrix(1,0,0,-1,0,49.536)" d="M303.01008 4.177933 302.78068 3.6H377.3102L383.01774 17.978819H329.5678L329.32048 19.52365H380.0156L385.7231 33.90247H335.9468L335.71803 35.15718H390.87657L396.5841 49.536H322.90415L303.01008 4.177933ZM267.31398 34.54019 253.23023 3.6H272.6058L286.68955 34.54019 286.9789 34.53645H313.77378L319.7277 49.536H246.78215L240.82822 34.53645H267.1284L267.31398 34.54019ZM608.84469 3.601282H624.26217L645.1707 49.534719H625.4358L613.8083 23.990523 585.29757 49.534719H569.50448L548.5959 3.601282H568.3308L580.14559 29.556786 608.84469 3.601282ZM431.81843 22.078873 427.114 49.513746 419.06507 49.510736H401.08549L380.18727 3.6H399.9124L411.27983 28.572716 416.2127 4.925813 435.20545 4.92091 457.8466 25.484604 447.8849 3.6H467.61003L488.50825 49.510736H469.69456L461.0951 49.536 431.81843 22.078873ZM169.01938 45.323198 150.40174 3.6H170.3963L175.7457 15.588296H209.29907L203.94968 3.6H223.94426L241.5718 43.104276C242.2092 44.438577 237.73607 49.881494 235.68787 49.51868H225.13207 187.5651 174.73012C173.41884 49.52644 169.69759 46.262865 169.01938 45.323198ZM218.18857 34.905595 216.52973 29.600844H182.2915L183.95037 34.905595H218.18857ZM12.44592 34.73784 16.692254 46.12683C17.71185 47.57117 21.373955 49.34139 23.842688 49.536H89.69196L83.99309 34.251165H32.147054L31.003344 34.254468 31.425129 33.38201 76.78917 33.399499C82.17586 31.097416 81.65112 27.27604 81.403499 27.067759 81.403499 27.067759 78.90755 20.37344 78.81899 20.135922L78.25765 18.205636 72.81201 3.6H0L5.698879 18.884835H57.650686L57.12756 19.890124 13.443307 19.904803C13.443307 19.904803 9.337905 20.5158 8.735104 24.514445L11.985539 33.26514 12.44592 34.73784ZM471.97474 4.177933 471.74534 3.6H546.27487L551.9824 17.978819H498.5325L498.28514 19.52365H548.9802L554.6878 33.90247H504.91148L504.68269 35.15718H559.84127L565.54879 49.536H491.8688L471.97474 4.177933ZM669.32656 34.54019 655.2428 3.6H674.6184L688.70217 34.54019 688.9915 34.53645H715.7863L721.7403 49.536H648.79476L642.8408 34.53645H669.141L669.32656 34.54019ZM115.03888 34.54019 100.95514 3.6H120.33072L134.41446 34.54019 134.70383 34.53645H161.49869L167.45262 49.536H94.50707L88.55315 34.53645H114.85332L115.03888 34.54019Z" fill="#ffffff" fill-rule="evenodd"/>
</g>
</svg>
