<svg xmlns="http://www.w3.org/2000/svg" xmlns:xlink="http://www.w3.org/1999/xlink" xmlns:inkscape="http://www.inkscape.org/namespaces/inkscape" version="1.1" width="1219.5798" height="1053.4826" viewBox="0 0 1219.5798 1053.4826">
<g inkscape:groupmode="layer" inkscape:label="Layer 1">
<path transform="matrix(1,0,0,-1,0,1053.4826)" d="M830.9268 711.1361C833.4524 708.066 836.53329 705.49868 840.0085 703.5682L874.9389 684.3101 887.2997 679.1118C908.82247 671.13406 930.9635 687.75497 934.50558 708.57608 937.74099 727.5946 918.7549 765.16696 898.96328 772.23007 907.5129 796.61227 887.18649 812.4615 870.9003 826.1062L856.53048 836.88369C858.59176 876.92727 840.45 876.1184 816.329 895.41317 803.99917 905.27597 798.5512 921.63156 792.9293 936.15646 786.61386 952.47329 768.2667 960.58096 751.94998 954.26547 751.7542 954.1897 751.55929 954.112 751.3651 954.03237 743.3322 957.15328 734.37466 956.86697 726.55746 953.2395 720.30026 953.7821 714.0229 952.4525 708.52297 949.4197L698.98849 949.87808 699.53909 961.8786C700.05758 973.179 694.5111 983.89846 684.98709 990.0026L593.7562 1048.4745C583.4245 1055.0963 570.1978 1055.1558 559.807 1048.6268L466.26216 989.84988C445.6347 976.889 452.05897 949.7887 453.0495 929.9779 383.8641 902.5633 324.16694 855.5816 281.2585 794.77828L269.3457 777.2108C262.44136 767.0233 262.0617 753.7591 268.37208 743.1934L269.77738 711.33999C270.54853 693.8606 285.3435 680.3159 302.82289 681.08706 306.0478 681.2293 309.232 681.86367 312.26524 682.9681L332.9214 690.489 358.0502 677.03176C363.66883 674.47427 369.86805 673.46206 376.00834 674.0996L404.41673 685.31558 422.39799 672.03158C427.76979 668.063 434.2584 665.8937 440.93687 665.8335L471.06498 665.562 475.59626 616.46438 426.3688 616.6919C421.92393 616.71249 417.52445 615.79739 413.45637 614.0062 409.77207 615.45077 405.84974 616.1922 401.89237 616.1922H364.22236C355.45399 616.1922 347.07777 612.5581 341.08753 606.15487L337.1978 601.9969C331.35795 611.19369 321.20234 616.7446 310.30827 616.69448L201.0766 616.1919C196.82289 616.1723 192.61669 615.2963 188.70885 613.6161 184.24788 615.3193 176.7888 616.9843 171.65888 617.1895 141.56334 618.3931 122.335018 618.3913 93.91804 615.8807 74.59795 613.67086 57.257684 602.9932 46.587625 586.73599L29.45112 554.8021C26.044995 548.159 23.937314 540.9271 23.241072 533.49429 12.633799 525.2226 5.26245 506.8656 1.524001 494.26179-2.853406 479.50379 2.526472 460.5874 13.47022 450.5063 23.103447 441.63243 30.63082 439.19917 42.509534 437.44184 71.576969 433.14164 132.6708 431.46028 159.7954 452.05198 165.59783 443.62083 175.11603 438.5123 185.34941 438.33689L215.15497 437.826C222.83997 437.69425 230.31078 440.36094 236.17539 445.32914 241.89559 440.4885 249.14649 437.8322 256.63999 437.8322H289.06236C297.4184 437.8322 305.43605 441.13359 311.3694 447.01737L321.2669 456.8322H335.86067C340.90126 445.29148 352.29887 437.8322 364.89237 437.8322H398.89237C400.90605 437.8322 402.91514 438.02424 404.89237 438.4056 420.65837 435.36457 452.0678 434.9212 463.97737 449.32487 471.94197 439.69233 481.3077 437.8322 493.61326 437.8322L503.7253 363.16127C478.7353 337.8968 470.176 328.63587 458.77253 300.41679 434.68464 240.80878 472.33729 183.44246 536.4544 172.0283L539.35427 164.22519C499.67506 146.79114 477.71455 100.20031 492.83863 58.837129 497.13365 46.58667 503.97196 35.383554 512.90438 25.963732 545.65536-7.872218 599.63479-8.751745 633.4707 23.999255 653.79696 43.67371 663.0419 72.1484 658.1496 100.010639 653.59146 127.2669 636.1484 150.64292 611.3175 162.77175L616.2044 173.5535 618.7777 182.02378C622.8651 165.01154 639.9697 154.53388 656.982 158.62129 664.8704 160.51659 671.7311 165.36605 676.14987 172.17003L685.4611 186.50759C687.2788 189.30641 688.6428 192.3749 689.5027 195.59947L706.7643 260.33055 708.5724 264.16099 717.86447 279.555C718.10708 280.00486 720.56637 285.24055 720.65896 285.49479L712.2081 319.9849C708.0111 323.94694 702.8799 326.78266 697.2921 328.2281L674.44277 331.20616C659.8479 334.04948 658.3969 335.43104 645.2549 341.0072L646.38796 349.83125 704.13656 392.95945C708.89816 397.14543 745.45999 436.1604 746.56698 438.06678 765.18478 437.73634 904.9699 437.8322 915.0624 437.8322 928.3533 437.8322 938.5101 445.38929 944.2347 457.04679 949.2233 445.3911 960.6807 437.8322 973.35916 437.8322H1015.0624C1024.3707 437.8322 1033.2081 441.92597 1039.2273 449.02626 1049.838 436.51 1076.0783 437.8322 1093.5624 437.8322 1105.7963 437.8322 1116.9368 444.87635 1122.1824 455.9286L1154.6481 524.3322C1198.8786 524.3322 1196.163 527.9259 1216.528 570.9614 1224.0119 586.7765 1217.2582 605.66397 1201.4431 613.1478 1197.207 615.15249 1192.5789 616.1922 1187.8923 616.1922H1078.2197C1076.2721 616.1922 1074.3285 616.01266 1072.4138 615.65567 1072.0848 615.6715 1071.7555 615.6822 1071.4262 615.68777L1041.4563 616.1928C1029.5176 616.394 1018.48 609.8655 1012.90609 599.30599 1007.42086 609.69296 996.6387 616.1922 984.89236 616.1922H941.22238C939.40737 616.1922 937.59567 616.03628 935.8074 615.726 934.01907 616.03628 932.2074 616.1922 930.39236 616.1922H825.22238C824.24398 616.1922 823.26608 616.1469 822.2919 616.0564 819.7056 624.1742 779.56747 669.79019 771.7431 673.7268 749.51626 709.3832 725.13796 727.3688 687.53707 749.33779L690.4125 789.4532C691.76406 789.17556 693.13229 788.98648 694.5084 788.88717L706.7337 772.0172C714.204 761.70877 727.11929 756.87338 739.5227 759.7412 746.92379 755.86746 754.7872 752.95016 762.9239 751.0594L773.2243 739.511C778.4524 734.82138 785.07626 731.9789 792.0772 731.4206L805.6886 718.11129C812.2544 712.35049 822.3175 709.93508 830.9268 711.1361Z" fill="#ffffff" fill-rule="evenodd"/>
<path transform="matrix(1,0,0,-1,0,1053.4826)" d="M654.8538 736.4755C654.8538 736.4755 659.08236 787.1099 662.14236 838.0122 665.897 900.4698 667.89236 963.3306 667.89236 963.3306L576.66159 1021.8025 483.1167 963.02548 490.61653 813.02926 654.8538 736.4755Z" fill-rule="evenodd"/>
<path transform="matrix(1,0,0,-1,0,1053.4826)" d="M646.89236 636.81228C646.89236 636.81228 625.871 649.3962 612.64236 656.5122 587.56869 670.00009 546.53036 683.61129 517.6787 694.3826 516.161 694.9493 515.8408 694.9157 514.4769 694.04708 513.46517 693.40267 512.7937 692.81619 511.23237 692.5122 507.87263 691.85818 500.39237 692.5122 500.39237 692.5122 500.39237 692.5122 501.94047 666.6409 504.39237 641.0122 506.38578 620.17587 508.97657 599.49978 508.97657 599.49978L642.58407 600.0142 646.89236 636.81228Z" fill-rule="evenodd"/>
<path transform="matrix(1,0,0,-1,0,1053.4826)" d="M552.7101 237.51222C552.7101 237.51222 566.35708 237.27814 573.91238 237.51222 578.38748 237.65088 582.4357 238.3266 587.39236 239.76222 592.2443 241.16754 599.5583 243.4649 599.5583 243.4649L607.63528 299.4307C607.86666 301.0341 607.865 301.34346 607.61849 302.52445 606.9171 305.88435 604.43508 307.31083 601.89236 308.26225 597.4083 309.94007 590.4309 309.1796 588.14236 310.51225 586.6318 311.39186 585.4293 319.35487 588.14236 322.51225 590.53189 325.2931 594.1495 325.47837 599.09237 325.01225 603.7213 324.5757 611.06057 323.45118 611.06057 323.45118L627.8254 454.0143 523.4593 453.51014 552.7101 237.51222Z" fill-rule="evenodd"/>
<path transform="matrix(1,0,0,-1,0,1053.4826)" d="M560.89236 197.21224C560.89236 197.21224 566.77267 180.31378 569.14236 175.01222 569.7643 173.62084 570.1444 173.02823 571.89236 171.76222 573.5408 170.56832 576.40567 168.7755 576.40567 168.7755 576.40567 168.7755 579.6543 171.7904 581.64236 174.01222 583.1014 175.6428 584.95797 179.46517 585.89236 182.76222 587.75759 189.34378 591.89236 202.51222 591.89236 202.51222L560.89236 197.21224Z" fill-rule="evenodd"/>
<path transform="matrix(1,0,0,-1,0,1053.4826)" d="M519.89236 90.86223C517.4026 75.755619 527.3174 55.99379 535.89236 47.762228 554.9862 29.433058 582.2669 27.075747 604.39236 41.762228 620.84878 52.68568 630.727 74.98695 626.89236 94.85223 620.4849 128.0458 586.4864 147.92664 556.14236 137.01222 542.0307 131.93643 528.84597 119.93836 523.89236 106.26223 522.13186 101.401729 520.53927 94.78703 519.89236 90.86223Z" fill-rule="evenodd"/>
<path transform="matrix(1,0,0,-1,0,1053.4826)" d="M668.81558 852.73947C677.5746 845.9521 683.69747 841.6616 688.14236 835.0122 691.5663 829.8902 696.7881 820.48507 696.7881 820.48507L703.89828 829.9181 732.3861 790.6069C732.3861 790.6069 733.62649 791.9515 734.62258 792.9854 741.6553 800.28536 742.55746 792.6304 757.64236 786.0122 768.41476 781.28616 776.9356 781.27987 782.89236 776.2622 785.9029 773.7263 789.909 768.4537 793.2474 764.40188 794.27786 763.1512 794.409 763.0103 794.55886 762.9932 795.0376 762.9385 795.3544 763.12466 794.89236 764.2122 794.11727 766.0368 791.1281 769.9339 791.1281 769.9339 791.1281 769.9339 803.74307 763.82498 807.89236 760.2622 816.4514 752.9131 824.63449 742.5664 826.14236 742.5122 826.5112 742.49899 826.89236 742.5122 826.89236 742.5122 826.89236 742.5122 824.59048 748.3062 822.64236 751.0122 821.1279 753.1159 819.8273 753.35336 819.69088 754.554 819.27896 758.1802 822.63967 760.279 821.39236 762.18228 820.79409 763.0951 815.2645 764.9598 811.39236 766.5122 803.79586 769.5579 783.43179 784.75 780.89236 788.0122 778.33956 791.29177 777.0441 796.54397 780.14236 801.5122 780.84768 802.64328 783.75747 804.9048 786.47976 804.5937 787.1211 804.5204 787.36337 804.4559 788.90206 803.9488 800.2367 800.2135 820.49148 795.1202 827.89236 788.2622 828.6224 787.58578 829.15768 786.9274 829.89236 785.5122 831.2797 782.8398 833.378 777.46847 833.378 777.46847 833.378 777.46847 838.96829 779.19949 841.59237 778.5122 842.98788 778.1468 844.93869 772.43698 847.39236 768.7622 849.33419 765.8541 852.2365 764.0818 854.79238 764.5122 858.3281 765.1077 857.12448 767.56259 854.64236 773.0122 853.0885 776.4238 851.58999 780.1197 849.64236 783.0122 847.6982 785.89968 846.2481 786.5143 848.14236 788.5122 848.869 789.2787 850.0839 790.3912 850.0839 790.3912 850.0839 790.3912 854.8549 787.7864 858.64236 784.0122 862.9489 779.7208 865.9838 773.91757 865.9838 773.91757L869.53237 784.03738C869.53237 784.03738 859.9838 793.47177 851.89236 800.7622 846.9258 805.2371 825.03756 821.5314 811.89236 830.7622 807.5587 833.8054 795.4379 844.5605 794.14236 846.5122 791.24819 850.8723 787.8838 862.0628 793.22238 863.5122 794.8833 863.96316 796.2509 862.77218 798.89236 860.0122 801.4969 857.2909 803.70626 854.66366 805.64236 851.5122 811.6818 841.6818 810.1033 838.65139 817.21237 838.5122 820.08328 838.45608 824.89236 838.5122 824.89236 838.5122 824.89236 838.5122 824.22036 840.47286 823.89236 842.6372 823.26718 846.7631 823.89236 851.6296 823.89236 851.6296 823.89236 851.6296 805.77377 862.9529 796.64236 870.5122 788.935 876.8927 777.49069 890.64297 773.14236 899.5122 768.39608 909.1934 763.38516 924.72128 763.38516 924.72128 763.38516 924.72128 761.4434 920.5619 759.89236 916.2622 758.34408 911.9703 757.185 907.53848 757.185 907.53848L739.89236 924.50277C739.89236 924.50277 739.96969 921.62667 740.2432 919.75289 740.5014 917.9842 740.93447 917.10867 740.89236 916.41226 740.86288 915.9238 739.9991 914.4929 738.55099 913.58309 737.7332 913.06936 737.51 913.1348 736.3188 914.238 735.1044 915.3627 734.12026 916.21096 732.39236 917.2622 729.29867 919.1446 723.8207 921.6779 723.8207 921.6779L722.89236 917.0122 670.89236 919.5122 667.48818 855.63967C667.4019 854.022 667.53469 853.73196 668.81558 852.73947ZM692.02236 600.0122H719.89236L719.3836 551.16976C719.3836 551.16976 727.00119 558.5261 734.5632 566.11117 751.2495 582.8483 767.6652 600.69888 767.6652 600.69888 767.6652 600.69888 759.15017 628.26 753.64236 641.0122 741.79257 668.448 717.6034 693.12887 693.39236 709.2622 685.0267 714.83688 667.3998 725.00796 654.39236 732.0122 645.1067 737.0124 499.41084 805.0763 486.89237 810.2622 446.1658 827.1337 395.40165 847.4115 395.40165 847.4115 395.40165 847.4115 398.35206 849.95468 401.06208 852.0251 411.6839 860.14028 430.7662 865.65817 443.64237 869.0122 458.89579 872.9856 482.89237 878.0122 482.89237 878.0122L481.33149 906.62857C481.33149 906.62857 451.0797 894.5183 431.39237 885.2622 386.35639 864.0884 338.00785 820.88809 307.14237 776.5122 301.85755 768.9142 295.5704 759.4376 295.5704 759.4376 295.5704 759.4376 394.09434 735.78659 441.89237 722.7622 479.75498 712.4452 536.6012 694.59548 570.89236 680.5122 605.3018 666.38046 655.6149 643.33657 677.39236 617.2622 681.3321 612.54519 685.37008 606.8296 689.17837 601.479 690.118 600.15896 690.40237 600.0122 692.02236 600.0122ZM788.8132 801.72219C788.8132 801.72219 785.3797 799.49526 783.89236 798.2622 782.16177 796.8275 782.8399 794.54507 784.64236 791.5122 787.5847 786.56149 805.79196 775.51046 811.39236 771.2622 813.2429 769.8585 815.8032 768.6494 817.59237 768.5122 819.2378 768.38607 821.39657 768.5122 821.39657 768.5122L785.89236 794.7122 788.8132 801.72219ZM826.89236 777.0122C827.1324 776.869 827.64816 777.206 827.89236 777.5122 828.5275 778.3088 826.22866 782.96786 825.64236 784.0122 824.73959 785.6204 823.80349 786.3702 822.39236 787.2622 819.48336 789.1012 802.4756 796.0623 799.79238 796.5122 798.69479 796.6963 797.7247 796.7706 797.39236 796.5122 797.1813 796.3481 797.2275 796.04977 797.39236 795.7122 797.89498 794.6832 819.394 781.4867 826.89236 777.0122ZM791.64236 796.0122 790.02597 793.57717C790.02597 793.57717 829.0702 765.9251 838.39236 757.7622 841.0013 755.4777 845.569 749.8028 846.64236 747.5122 850.43978 739.4089 850.6812 735.279 855.39236 731.2622 862.7918 724.9534 895.8496 708.95059 897.89236 709.0122 900.1835 709.08139 902.7846 710.94699 903.27426 713.8891 903.4761 715.1019 899.07168 727.3623 897.39236 730.2622 897.1223 730.7286 888.46 744.6094 887.39236 742.5122 886.8294 741.40646 889.6488 735.11166 889.39236 731.7122 889.1714 728.78237 887.85397 728.3794 883.59237 729.0122 879.5123 729.6181 876.0446 731.4594 872.39236 733.7622 866.91299 737.21707 837.17367 765.61477 819.89236 779.7622 816.1006 782.8664 812.3396 785.638 808.89236 787.2622 806.508 788.3856 804.24 788.98507 800.4579 790.9325 796.76998 792.8315 791.64236 796.0122 791.64236 796.0122ZM336.81413 724.34097C347.072 720.2219 360.7451 711.8829 370.4921 706.1663 371.88963 705.3467 372.21034 705.32656 373.69923 705.96499L411.01264 721.9659C411.01264 721.9659 370.26136 732.689 330.76737 741.1789 315.2326 744.5183 299.89237 747.5122 299.89237 747.5122L301.4266 712.73629 333.451 724.3964C334.97325 724.9506 335.30955 724.94509 336.81413 724.34097ZM496.70457 697.0122 413.99238 721.0122H409.41279L441.22236 697.5122 496.70457 697.0122ZM772.89236 600.0122H779.89236L778.8749 603.1023C778.8749 603.1023 786.99417 603.4758 791.39236 605.2622 792.0755 605.5397 792.70407 605.8525 792.70407 605.8525 792.70407 605.8525 779.8414 621.9893 766.64236 636.0122 762.0935 640.84506 757.5047 645.42678 757.5047 645.42678 757.5047 645.42678 771.4086 609.3763 772.37716 603.6347 772.6911 601.77346 772.89236 600.0122 772.89236 600.0122ZM66.68905 516.65316 124.84567 513.12136C126.46269 513.02316 126.72014 512.9958 127.42015 512.8481 130.56298 512.18496 131.39324 509.22084 130.89237 507.34223 129.11998 500.69474 124.6792 497.03837 119.39236 495.26225 118.52854 494.97203 117.59144 494.6828 116.650959 494.6145 115.38322 494.52247 115.06236 494.51225 113.44236 494.51225H77.18236C75.56236 494.51225 75.22882 494.53944 73.847 494.78413 71.193729 495.25398 68.612918 497.10823 68.39236 498.91224 68.09614 501.3351 70.89236 508.51225 70.89236 508.51225H42.72236C42.72236 508.51225 38.4566 502.02098 36.14236 497.51225 32.22735 489.8848 29.86509 480.49336 34.14236 474.51225 36.903829 470.65074 40.094789 469.7079 45.14236 469.01225 62.148309 466.6685 96.07308 467.34754 110.76736 468.01225 131.28986 468.94056 141.93172 474.7844 152.89237 491.76225 158.81525 500.93669 165.6401 514.67337 166.89237 525.61227 167.3394 529.51736 166.0572 534.4051 162.89237 536.7622 161.13623 538.0702 157.75534 538.8715 155.10904 539.715 153.56403 540.2075 153.21253 540.27 151.59406 540.3404L97.69066 542.684C96.07219 542.7544 95.750019 542.8529 94.46894 543.6691 91.69548 545.4362 90.99895 546.3691 91.89236 548.85226 95.739948 559.5462 101.5679 559.7141 114.36236 560.5122 118.12464 560.74697 149.08608 563.0573 149.89237 557.18228 150.24315 554.6261 148.89237 548.5122 148.89237 548.5122H176.56237C176.56237 548.5122 180.85843 555.9297 182.89237 561.0122 184.99987 566.2786 186.50868 575.42666 183.14237 580.0122 180.36 583.80239 175.91999 585.0277 171.24236 585.5122 166.2582 586.0285 108.809818 587.21548 95.89236 584.2622 86.28134 582.06497 78.448978 575.89 72.14236 568.0122 70.18058 565.5617 59.5317 545.244 57.51069 540.0956 55.41573 534.75869 54.07716 530.27969 54.89236 524.50228 55.355936 521.2168 58.767248 517.6021 63.524019 516.9498 64.75552 516.781 65.07203 516.75137 66.68905 516.65316ZM187.8284 556.0122H226.6292L185.89237 470.01225 215.6979 469.50135 256.85166 556.0122H296.90885L310.454 585.01486 201.22237 584.5122 187.8284 556.0122ZM411.89237 556.5122 451.6863 555.9954 410.89237 469.51225H439.56236L481.37315 556.0122H521.42178L534.39236 584.5122 426.22236 585.0122 411.89237 556.5122ZM398.89237 469.51225C398.89237 469.51225 398.74327 484.50068 398.89237 499.76225 399.27864 539.2951 401.89237 584.5122 401.89237 584.5122H364.22236L256.63999 469.51225H289.06236L308.22236 488.51225H364.89237V469.51225H398.89237ZM530.2625 497.51225C530.2625 497.51225 532.042 499.58647 533.64236 502.01225 537.1945 507.39634 539.86459 514.5122 539.86459 514.5122H609.5624L622.307 539.0093 551.89236 539.5122 559.8848 556.5145 634.9221 556.0098 648.4624 584.5122H543.2905L488.39237 469.51225H594.1482L607.9854 497.51225H530.2625ZM771.4691 583.22018C750.002 561.0881 709.43759 519.50759 707.39236 516.5122 705.88198 514.3001 704.39236 512.0122 704.39236 512.0122V584.5122H661.22238L606.1276 469.51225H635.0624L674.4125 552.7268 673.89236 469.51225H693.0624L770.89236 549.5122 731.89236 470.01225 760.0624 469.51225 815.89236 584.5122H774.52236C772.90237 584.5122 772.59707 584.383 771.4691 583.22018ZM812.89236 497.51225C812.89236 497.51225 813.12539 498.77607 813.49899 500.10716 815.10067 505.81336 820.3745 514.5122 820.3745 514.5122H891.0624C891.0624 514.5122 892.7814 517.06997 893.89236 519.0122 895.61288 522.0201 895.8752 523.55209 897.14236 526.5122 899.1543 531.2121 903.6994 539.5122 903.6994 539.5122H832.5484L839.8573 556.5122H915.58468L930.39236 584.5122H825.22238L769.33139 469.51225H875.1482L888.9854 497.51225H812.89236ZM915.0624 469.51225C915.0624 469.51225 918.38156 475.44349 921.64236 481.51225 932.42037 501.57127 955.50607 551.87179 955.50607 551.87179L973.35916 469.51225H1015.0624L1070.8923 584.0122 1040.9225 584.5173 1001.79037 501.66374 984.89236 584.5122H941.22238L885.89236 469.51225H915.0624ZM1064.5028 556.51718 1105.1603 556.0025 1063.3923 469.51225H1093.5624L1134.617 556.0122H1174.4058L1187.8923 584.5122H1078.2197L1064.5028 556.51718ZM367.89237 516.5122 332.79405 517.0284C332.79405 517.0284 363.8441 549.0074 366.64237 553.5122 367.92076 555.57028 369.00474 557.58529 369.00474 557.58529 369.00474 557.58529 368.23298 549.9084 367.89237 542.0122 367.3542 529.5359 367.89237 516.5122 367.89237 516.5122ZM622.3175 371.39396C622.3175 371.39396 651.53219 391.74678 665.64236 402.01225 672.3028 406.85783 675.5977 409.45585 681.39236 415.01225 694.1876 427.28144 719.17086 453.97517 719.17086 453.97517L707.3181 454.53959C707.3181 454.53959 709.0731 456.55564 710.64236 459.01225 714.03378 464.3213 716.5577 471.68797 716.5577 471.68797L699.1425 454.00068 658.89236 454.51225V469.118L630.14236 436.01225 622.3175 371.39396ZM538.107 312.28947 532.501 347.20429C532.501 347.20429 516.7447 332.7973 507.39237 322.01225 499.649 313.0826 492.1154 299.47557 488.14237 288.51225 477.30995 258.62083 485.5715 229.76847 512.39236 213.76222 533.39486 201.2283 559.1644 199.99404 584.01736 205.1789 587.8931 205.98746 604.5602 212.21924 607.64236 214.01222 616.61007 219.22899 628.2223 227.94298 633.89236 230.26222 638.0277 231.95372 642.1606 230.25504 646.64236 226.01222 650.87979 222.0008 652.6948 214.73532 652.39236 208.01222 652.09207 201.3376 649.58108 189.42469 649.58108 189.42469 649.58108 189.42469 652.813 193.96303 654.89236 197.01222 657.09487 200.242 658.0043 201.80103 658.89236 203.76222 661.4414 209.39153 672.2555 257.80354 676.89236 271.26225 677.81539 273.94126 678.75997 276.26023 680.6143 279.14717 684.51327 285.21708 691.24057 295.93385 690.9019 296.53993 690.693 296.91386 690.3082 297.17924 689.9415 297.41267 689.44729 297.72727 689.21359 297.78303 687.60427 297.97019 669.0704 300.12559 661.46157 299.846 648.39236 305.26225 624.98507 314.96284 623.035 317.72706 600.4924 320.51225 596.06979 321.05867 592.2749 321.77824 591.89236 318.35224 591.7263 316.86503 591.89236 314.34223 591.89236 314.34223 591.89236 314.34223 598.7026 313.46974 603.39236 312.26225 621.46066 307.61009 632.7932 287.96534 629.89236 270.50224 625.7656 245.6594 600.428 235.49146 575.39236 233.01222 570.6217 232.5398 551.3335 233.05644 547.39236 233.76222 521.68569 238.36582 507.91978 255.30237 517.14236 281.01225 521.6629 293.6141 528.02108 299.92079 537.13259 309.2257 538.26638 310.38359 538.36386 310.68995 538.107 312.28947Z" fill="#00007f" fill-rule="evenodd"/>
<path transform="matrix(1,0,0,-1,0,1053.4826)" d="M797.92599 853.54269C797.1625 853.62997 797.07736 853.46707 797.39236 851.91226 797.5356 851.2054 797.6404 850.7391 798.14236 850.0122 799.4401 848.13308 803.39236 844.5122 803.39236 844.5122V845.7122L799.1908 852.0145C798.29226 853.3625 798.1657 853.51528 797.92599 853.54269Z" fill="#b92320" fill-rule="evenodd"/>
</g>
</svg>
